# xmcd
#
# Track frame offsets: 
#        208
#        13830
#        28222
#        39271
#        54077
#        69181
#        86115
#        100484
#        119147
#        131779
#        146778
#        159909
#        171127
#        189395
#        206357
#
# Disc length: 2856 seconds
#
# Revision: 0
# Processed by: cddbd v1.5.2PL0 Copyright (c) Steve Scherf et al.
# Submitted via: ExactAudioCopy v0.99pb4
#
DISCID=d00b260f
DTITLE=Steam Donkeys - Little Honky Tonks
DYEAR=1988
DGENRE=Country
TTITLE0=Little Honky Tonks
TTITLE1=Hollywood Stars
TTITLE2=Pity Party
TTITLE3=Bird-Headed Woman (Parts 1 and 3)
TTITLE4=Hannah
TTITLE5=Waltz Through The Rubbish
TTITLE6=Northern Border Town
TTITLE7=Let Me Tell You A Secret
TTITLE8=Lonesome For Someone
TTITLE9=Dashboard Mary
TTITLE10=April Fool For You
TTITLE11=Wild Cherry
TTITLE12=With A Friend Like You
TTITLE13=Pothead
TTITLE14=Before The Next Teardrop Falls
EXTD=
EXTT0=
EXTT1=
EXTT2=
EXTT3=
EXTT4=
EXTT5=
EXTT6=
EXTT7=
EXTT8=
EXTT9=
EXTT10=
EXTT11=
EXTT12=
EXTT13=
EXTT14=
PLAYORDER=
